<?xml version="1.0" standalone="no"?><!DOCTYPE svg PUBLIC "-//W3C//DTD SVG 1.1//EN" "http://www.w3.org/Graphics/SVG/1.1/DTD/svg11.dtd"><svg class="icon" width="32px" height="30.48px" viewBox="0 0 1075 1024" version="1.1" xmlns="http://www.w3.org/2000/svg"><path d="M891.1872 263.8848c21.9648 0.3072 42.8544 9.216 58.1632 24.6784 15.3088 15.5136 23.7568 36.352 23.4496 57.9584v441.1392c0.3072 21.6064-8.0896 42.496-23.3984 58.0096a83.456 83.456 0 0 1-58.2144 24.7296H184.1152a83.6096 83.6096 0 0 1-58.2656-24.7296A80.896 80.896 0 0 1 102.4 787.6608V346.5216a80.896 80.896 0 0 1 23.4496-57.9584 83.5584 83.5584 0 0 1 58.2144-24.6784h107.6736C317.5936 263.8848 372.3776 153.6 401.152 153.6h272.2816c28.7744 0 83.6608 110.2848 109.4144 110.2848h108.3392z m-148.1728 265.8816c0-39.936-12.6464-78.848-36.1472-111.4112l-0.8704-1.536c-2.8672-3.8912-5.9392-7.4752-8.96-11.1616l-1.0752-1.3312a201.984 201.984 0 0 0-76.544-55.1936l-2.4576-1.1264a218.4704 218.4704 0 0 0-14.4896-5.0688c-1.7408-0.512-3.4816-1.1776-5.2224-1.6384a282.5728 282.5728 0 0 0-12.9536-3.2256c-2.4576-0.512-4.7616-1.0752-7.2192-1.536l-3.4816-0.768c-3.2256-0.512-6.5536-0.7168-9.728-1.1776-2.2528-0.256-4.5056-0.6144-6.7072-0.8192a229.0688 229.0688 0 0 0-16.2304-0.8704H537.6a208.7424 208.7424 0 0 0-117.0944 35.584 23.3984 23.3984 0 0 0-10.1376 15.1552 22.8352 22.8352 0 0 0 4.096 17.7152 24.1664 24.1664 0 0 0 15.8208 9.728 25.4464 25.4464 0 0 0 18.432-3.9424 158.8736 158.8736 0 0 1 108.4928-25.856c3.6864 0.512 7.3728 0.9216 10.9568 1.6384 1.536 0.256 3.2256 0.768 4.8128 1.024 3.584 0.768 7.1168 1.536 10.5984 2.56 1.024 0.4096 2.1504 0.768 3.2768 1.1264a155.9552 155.9552 0 0 1 71.6288 46.8992l0.256 0.3584c22.8864 26.4704 35.4304 60.0576 35.4304 94.8224h-41.0112l65.5872 94.464 65.7408-94.464-41.472 0.0512z m-115.712 122.5216c-30.5664 20.48-67.3792 29.7984-104.1408 26.4192l-5.12-0.7168c-3.328-0.4096-6.656-0.768-9.8304-1.4336-1.9968-0.3584-3.9424-0.8192-5.9904-1.28-3.1744-0.768-6.2976-1.3824-9.4208-2.304l-4.5056-1.3824a123.9552 123.9552 0 0 1-12.8-4.7104 180.736 180.736 0 0 1-11.9296-5.5808l-0.512-0.256a156.9792 156.9792 0 0 1-35.4816-25.5488l-0.512-0.512a128.4096 128.4096 0 0 1-9.216-9.8816c-0.512-0.768-1.28-1.4848-1.8432-2.304a145.3568 145.3568 0 0 1-34.1504-93.2864h41.0624L357.2736 434.9952l-65.6896 94.5152h41.0624c0 39.9872 12.6976 79.0016 36.2496 111.616 0.3072 0.4096 0.512 0.8704 0.8192 1.3824 2.304 3.1744 4.9664 6.2464 7.4752 9.216 1.024 1.2288 1.8432 2.4576 2.8672 3.5328 3.7888 4.352 7.68 8.3456 11.776 12.4416l1.1776 1.1776a202.24 202.24 0 0 0 62.3616 40.8064l3.7888 1.6896c4.2496 1.7408 8.704 3.2256 13.2096 4.6592l6.4512 2.048c3.84 1.0752 7.8848 2.048 11.9808 2.9696 2.816 0.6144 5.3248 1.28 8.0384 1.7408l3.2768 0.7168c3.84 0.6656 7.6288 1.024 11.52 1.4848l4.096 0.512a209.6128 209.6128 0 0 0 137.8816-34.6624 23.552 23.552 0 0 0 10.0352-15.2064 23.0912 23.0912 0 0 0-4.096-17.7152 24.6784 24.6784 0 0 0-15.872-9.6256 25.7024 25.7024 0 0 0-18.432 3.8912v0.1024z" fill="#197FEE" /></svg>