<svg width="21" height="20" viewBox="0 0 21 20" fill="none" xmlns="http://www.w3.org/2000/svg">
<g id="&#229;&#136;&#135;&#230;&#141;&#162;&#230;&#145;&#132;&#229;&#131;&#143;&#229;&#164;&#180;">
<path id="Vector" d="M17.406 5.15385C17.8347 5.1603 18.2434 5.33388 18.5422 5.63648C18.841 5.93908 19.0056 6.34598 18.9998 6.76787V15.3843C19.0062 15.8065 18.8418 16.214 18.5429 16.5169C18.244 16.8199 17.8351 16.9937 17.406 17H3.5951C3.16596 16.9935 2.75696 16.8198 2.45792 16.5169C2.15888 16.2139 1.99424 15.8066 2.00015 15.3843V6.76787C1.99453 6.34593 2.15924 5.93904 2.45815 5.63645C2.75706 5.33386 3.16575 5.1603 3.59455 5.15385H5.69826C6.2026 5.15385 7.27273 3 7.83464 3H13.1526C13.7151 3 14.7869 5.15385 15.2901 5.15385H17.406ZM14.5123 10.3473C14.5122 9.56728 14.2653 8.80668 13.8059 8.17108L13.7887 8.14112C13.7333 8.06486 13.673 7.99514 13.6138 7.92323C13.6066 7.91397 13.6005 7.90526 13.5927 7.89654C13.1884 7.4258 12.676 7.05648 12.098 6.81907L12.0504 6.79728C11.9574 6.76097 11.8631 6.72792 11.7675 6.69814C11.7332 6.68779 11.6988 6.67527 11.6651 6.666C11.5813 6.64313 11.4969 6.62225 11.4121 6.60336C11.3644 6.59247 11.3191 6.58157 11.2709 6.57286C11.2487 6.56904 11.2255 6.56196 11.2028 6.55815C11.1397 6.54834 11.0749 6.54399 11.0129 6.53527C10.9692 6.52982 10.9254 6.52274 10.8817 6.51893C10.7764 6.50956 10.6708 6.50393 10.565 6.50204H10.5003C9.68381 6.5004 8.8861 6.74279 8.21275 7.19711C8.16132 7.23092 8.11734 7.27457 8.08343 7.32546C8.04952 7.37635 8.02637 7.43344 8.01536 7.49333C8.00436 7.55321 8.00572 7.61467 8.01938 7.67402C8.03303 7.73337 8.05869 7.78941 8.09483 7.8388C8.13113 7.88883 8.17709 7.93133 8.2301 7.96386C8.28311 7.99639 8.34212 8.01831 8.40375 8.02836C8.52939 8.05002 8.65866 8.02267 8.76415 7.9521C9.28463 7.6016 9.90226 7.41747 10.5329 7.42481C10.6499 7.42561 10.7667 7.43307 10.8828 7.44714C10.9548 7.4564 11.0267 7.46512 11.0971 7.47874C11.1275 7.48418 11.1602 7.49399 11.1906 7.49889C11.2609 7.5136 11.3296 7.5294 11.3982 7.54901C11.4187 7.55663 11.4397 7.56426 11.4624 7.57079C11.5477 7.59617 11.6314 7.62618 11.7132 7.66067C12.1568 7.84301 12.5502 8.12598 12.8614 8.48648L12.8664 8.49356C13.3126 9.01087 13.5578 9.66714 13.5584 10.3456H12.7568L14.0384 12.1912L15.3216 10.3456L14.5123 10.3473ZM12.2513 12.7402C11.6555 13.1399 10.9364 13.3222 10.2185 13.2556L10.1172 13.2425C10.0529 13.2338 9.98873 13.2267 9.92562 13.2142C9.88742 13.2071 9.84922 13.1978 9.80936 13.1891C9.7468 13.1738 9.68591 13.1619 9.62501 13.1439L9.53699 13.1166C9.45174 13.0907 9.36802 13.0602 9.2862 13.0251C9.20757 12.9916 9.1302 12.9553 9.05424 12.9162L9.04317 12.9113C8.78989 12.7777 8.55694 12.6097 8.35116 12.4123L8.34174 12.4014C8.27803 12.3405 8.21761 12.2763 8.16071 12.2091C8.1502 12.1939 8.13635 12.1803 8.12528 12.1639C7.69496 11.6512 7.45913 11.0073 7.45818 10.3424H8.25981L6.97765 8.49628L5.69494 10.3424H6.49657C6.49723 11.1234 6.74488 11.8849 7.20518 12.5213C7.21072 12.5305 7.2146 12.5392 7.22124 12.5485C7.26608 12.6111 7.31812 12.6705 7.36739 12.7299C7.38622 12.7533 7.40338 12.7767 7.42275 12.798C7.49749 12.8835 7.57278 12.9614 7.6525 13.0409L7.67575 13.0644C7.94337 13.3211 8.24663 13.5391 8.57647 13.712C8.58494 13.7176 8.59383 13.7225 8.60305 13.7267C8.69827 13.7747 8.7946 13.8199 8.89425 13.8613L8.96788 13.894C9.05147 13.9277 9.13894 13.9572 9.22641 13.9855L9.35153 14.0253C9.42737 14.0465 9.50598 14.065 9.5857 14.083C9.64106 14.0955 9.68978 14.108 9.74293 14.1168C9.76618 14.1217 9.78666 14.1277 9.80715 14.1315C9.88188 14.144 9.95551 14.1516 10.0319 14.1598L10.1116 14.1707C10.2445 14.1832 10.379 14.1919 10.5124 14.1919C11.3305 14.1926 12.1296 13.9493 12.8044 13.4941C12.8557 13.4599 12.8996 13.416 12.9334 13.3648C12.9672 13.3137 12.9903 13.2564 13.0012 13.1963C13.0121 13.1362 13.0107 13.0746 12.9971 13.0151C12.9835 12.9556 12.9578 12.8994 12.9218 12.8497C12.8473 12.7494 12.7358 12.6819 12.6112 12.6618C12.4857 12.6408 12.3569 12.6681 12.2513 12.7381V12.7402Z" fill="#E5E5E5"/>
</g>
</svg>
