<?xml version="1.0" standalone="no"?><!DOCTYPE svg PUBLIC "-//W3C//DTD SVG 1.1//EN" "http://www.w3.org/Graphics/SVG/1.1/DTD/svg11.dtd"><svg class="icon" width="32px" height="32.00px" viewBox="0 0 1024 1024" version="1.1" xmlns="http://www.w3.org/2000/svg"><path d="M91.4432 192c0-55.552 45.056-100.5568 100.5568-100.5568h640c55.552 0 100.5568 45.056 100.5568 100.5568v469.3504c0 55.5008-45.056 100.5568-100.5568 100.5568h-283.4432v97.536h176.7936v73.1136H298.6496v-73.1136h176.7936V761.856H192a100.5568 100.5568 0 0 1-100.5568-100.5568V192z m268.1856 131.072h219.3408L347.136 535.3472l51.712 51.712 222.9248-204.032v202.1376h73.1136V286.5152a36.5568 36.5568 0 0 0-36.5568-36.608H359.6288V323.072z" fill="#ffffff" /></svg>