<svg width="22" height="22" viewBox="0 0 22 22" fill="none" xmlns="http://www.w3.org/2000/svg">
<path d="M3.6732 19.3255C3.85367 19.3281 4.02614 19.2606 4.15657 19.1339L9.22302 14.2115L9.15882 18.6646C9.15322 19.0548 9.46448 19.3752 9.85475 19.3808C10.245 19.3864 10.5654 19.0751 10.571 18.6849L10.6589 12.5873C10.6614 12.5671 10.664 12.5468 10.6643 12.5287C10.6655 12.443 10.6417 12.3682 10.6202 12.3002C10.6094 12.2685 10.5985 12.2367 10.5832 12.2049C10.5788 12.1936 10.5745 12.1777 10.5703 12.1596C10.5618 12.1188 10.5491 12.0645 10.5023 12.0187C10.4667 11.9844 10.4241 11.9725 10.3971 11.9653C10.3904 11.963 10.3791 11.9605 10.3746 11.9582C10.2876 11.8938 10.1867 11.8495 10.0741 11.8298L10.0674 11.8297C10.0651 11.8274 10.0651 11.8274 10.0629 11.8274C10.0539 11.825 10.0382 11.8202 10.0202 11.82L10.0179 11.8199C10.0067 11.8153 9.9887 11.8105 9.96616 11.8102L3.80539 11.7213C3.41513 11.7157 3.09469 12.0292 3.08908 12.4195C3.08345 12.8098 3.39474 13.1302 3.785 13.1358L8.31249 13.201L3.20941 18.1591C3.079 18.2858 3.0066 18.4562 3.00398 18.6367C3.00136 18.8172 3.06886 18.9896 3.19556 19.1201C3.32229 19.2505 3.49045 19.3229 3.6732 19.3255ZM11.6263 10.0695V10.0718C11.6263 10.0898 11.6308 10.1056 11.6331 10.1146C11.6331 10.1169 11.633 10.1169 11.6353 10.1191V10.1259C11.6534 10.2387 11.6962 10.3402 11.7594 10.4282C11.7616 10.4327 11.7639 10.444 11.7661 10.4508C11.7729 10.4778 11.7842 10.5207 11.818 10.5568C11.8632 10.6042 11.9173 10.6177 11.9579 10.6268C11.976 10.6313 11.9918 10.6358 12.0031 10.6403C12.0346 10.6561 12.0662 10.6674 12.0978 10.6786C12.179 10.7057 12.2738 10.7373 12.3843 10.7238H18.4848C18.8751 10.7238 19.191 10.4079 19.191 10.0176C19.191 9.62733 18.8751 9.31144 18.4848 9.31144H14.0291L19.024 4.3165C19.2902 4.05024 19.2902 3.61935 19.024 3.35541C18.8954 3.22681 18.7239 3.15686 18.5435 3.15686C18.3607 3.15686 18.1915 3.22681 18.0629 3.35541L13.0318 8.38647V3.85849C13.0318 3.46821 12.716 3.15234 12.3257 3.15234C11.9354 3.15234 11.6196 3.46821 11.6196 3.85849V10.0176C11.6173 10.0402 11.624 10.0582 11.6263 10.0695Z" fill="#F0F0F0"/>
</svg>
