<?xml version="1.0" standalone="no"?><!DOCTYPE svg PUBLIC "-//W3C//DTD SVG 1.1//EN" "http://www.w3.org/Graphics/SVG/1.1/DTD/svg11.dtd"><svg class="icon" width="32px" height="32.00px" viewBox="0 0 1024 1024" version="1.1" xmlns="http://www.w3.org/2000/svg"><path d="M512 42.688a192 192 0 0 1 190.08 164.8l-360.832 392.32A191.168 191.168 0 0 1 320 512V234.688a192 192 0 0 1 192-192z m-277.312 448c0 62.016 20.352 119.232 54.72 165.44l-58.56 63.68a361.152 361.152 0 0 1-81.536-229.12 42.688 42.688 0 1 1 85.376 0z m156.224 249.6l-59.648 64.832a360.32 360.32 0 0 0 138.048 45.696v87.872a42.688 42.688 0 1 0 85.376 0v-87.872c180.16-21.12 320-174.272 320-360.128a42.688 42.688 0 0 0-85.376 0 277.312 277.312 0 0 1-398.4 249.6zM704 399.744l-266.112 289.344A192 192 0 0 0 704 512V399.872z m215.232-277.12l-53.824-49.536L73.088 934.4l53.888 49.536L919.232 122.624z" fill="#FF4D4F" /></svg>