<?xml version="1.0" standalone="no"?><!DOCTYPE svg PUBLIC "-//W3C//DTD SVG 1.1//EN" "http://www.w3.org/Graphics/SVG/1.1/DTD/svg11.dtd"><svg class="icon" width="32px" height="30.48px" viewBox="0 0 1075 1024" version="1.1" xmlns="http://www.w3.org/2000/svg"><path d="M25.6 282.624c0-90.624 94.208-90.624 94.208-90.624h498.1248s94.3104 0 94.3616 93.3888v455.9872c0 90.624-94.208 90.624-94.208 90.624h-498.176S25.6 832 25.6 741.376V282.624z m769.792 101.632l185.7536-142.7968c5.5296-5.4784 13.824-5.4784 22.1184-2.7136a20.6848 20.6848 0 0 1 13.8752 19.2V771.584c0 8.2944-2.7136 16.4864-11.0592 19.2-5.5808 2.7648-8.2432 2.7648-11.0592 2.7648a21.504 21.504 0 0 1-13.8752-5.4784l-185.7024-142.848c-5.4784-2.7136-8.2944-10.9568-8.2944-16.4864V400.7936c0-5.5296 2.816-11.008 8.2432-16.5376zM201.5744 437.2992a62.208 62.208 0 1 0 0-124.416 62.208 62.208 0 0 0 0 124.416z" fill="#4385FF" /></svg>