<?xml version="1.0" standalone="no"?><!DOCTYPE svg PUBLIC "-//W3C//DTD SVG 1.1//EN" "http://www.w3.org/Graphics/SVG/1.1/DTD/svg11.dtd"><svg class="icon" width="32px" height="32.00px" viewBox="0 0 1024 1024" version="1.1" xmlns="http://www.w3.org/2000/svg"><path d="M512 42.6496a192 192 0 0 0-192 192V512a192 192 0 1 0 384 0V234.6496A192 192 0 0 0 512 42.6496z" fill="#ffffff" /><path d="M192 448c23.552 0 42.6496 19.0976 42.6496 42.6496a277.3504 277.3504 0 1 0 554.7008 0 42.6496 42.6496 0 0 1 85.2992 0 362.6496 362.6496 0 1 1-725.2992 0c0-23.552 19.0976-42.6496 42.6496-42.6496z" fill="#ffffff" /><path d="M512 768c23.552 0 42.6496 19.0976 42.6496 42.6496v128a42.6496 42.6496 0 1 1-85.2992 0v-128c0-23.552 19.0976-42.6496 42.6496-42.6496z" fill="#ffffff" /></svg>