<?xml version="1.0" standalone="no"?><!DOCTYPE svg PUBLIC "-//W3C//DTD SVG 1.1//EN" "http://www.w3.org/Graphics/SVG/1.1/DTD/svg11.dtd"><svg class="icon" width="32px" height="32.00px" viewBox="0 0 1024 1024" version="1.1" xmlns="http://www.w3.org/2000/svg"><path d="M779.2 89.024H88.96V935.04H935.04V88.96h-155.776zM0 823.68V44.544C0 19.84 19.904 0 44.544 0h934.912c24.576 0 44.544 19.904 44.544 44.544v934.912a44.544 44.544 0 0 1-44.544 44.544H44.544A44.544 44.544 0 0 1 0 979.456v-155.84z m801.408-322.752a44.544 44.544 0 1 0 0-89.024H612.16V222.592a44.544 44.544 0 0 0-89.024 0v233.792c0 24.576 19.904 44.48 44.48 44.48h233.792zM456.32 845.888a44.544 44.544 0 0 1-44.48-44.544V612.16H222.592a44.544 44.544 0 1 1 0-89.024H456.32c24.64 0 44.544 19.904 44.544 44.48v233.728a44.544 44.544 0 0 1-44.544 44.544z" fill="#ffffff" /></svg>