<?xml version="1.0" standalone="no"?><!DOCTYPE svg PUBLIC "-//W3C//DTD SVG 1.1//EN" "http://www.w3.org/Graphics/SVG/1.1/DTD/svg11.dtd"><svg class="icon" width="32px" height="32.00px" viewBox="0 0 1024 1024" version="1.1" xmlns="http://www.w3.org/2000/svg"><path d="M571.178667 511.957333l299.989333-357.632a9.088 9.088 0 0 0-6.954667-14.933333h-91.221333a18.602667 18.602667 0 0 0-14.037333 6.485333l-247.466667 294.997334L264.106667 145.877333a18.261333 18.261333 0 0 0-14.08-6.485333H158.848a9.088 9.088 0 0 0-6.997333 14.933333L451.882667 512 151.850667 869.546667a9.088 9.088 0 0 0 6.997333 14.933333H250.026667a18.602667 18.602667 0 0 0 14.08-6.485333l247.424-294.954667 247.424 294.954667c3.413333 4.138667 8.533333 6.528 14.08 6.528h91.178666a9.088 9.088 0 0 0 6.954667-14.976l-299.946667-357.589334z" fill="#DCDADA" /></svg>