<?xml version="1.0" standalone="no"?><!DOCTYPE svg PUBLIC "-//W3C//DTD SVG 1.1//EN" "http://www.w3.org/Graphics/SVG/1.1/DTD/svg11.dtd"><svg class="icon" width="32px" height="32.00px" viewBox="0 0 1024 1024" version="1.1" xmlns="http://www.w3.org/2000/svg"><path d="M512 512m-512 0a512 512 0 1 0 1024 0 512 512 0 1 0-1024 0Z" fill="#FF4D4F" /><path d="M709.674667 585.856a23.480889 23.480889 0 0 1-23.068445 5.973333l-56.903111-16.284444a23.495111 23.495111 0 0 1-15.829333-15.146667l-19.569778-58.709333S559.473778 478.193778 512 478.193778s-82.104889 23.495111-82.104889 23.495111l-19.569778 58.695111c-2.446222 7.367111-8.376889 13.027556-15.829333 15.160889l-57.102222 16.298667a23.495111 23.495111 0 0 1-23.054222-5.973334L272.213333 543.715556c-21.461333-21.447111-17.024-56.874667 10.154667-70.343112 55.850667-27.662222 147.484444-65.649778 229.632-65.649777 82.161778 0 173.795556 37.973333 229.632 65.649777 27.192889 13.468444 31.616 48.896 10.168889 70.343112l-42.126222 42.126222z" fill="#FFFFFF" /></svg>