<svg width="22" height="22" viewBox="0 0 22 22" fill="none" xmlns="http://www.w3.org/2000/svg">
<path d="M3 4.05042L3 17.9275C3 19.0764 4 20 5.2439 20H15.7561C17 20 18 19.0764 18 17.9275V4.07295C18 2.92404 17 2.0004 15.7561 2.0004H5.26829C4.02439 1.97787 3 2.90151 3 4.05042ZM15.7561 3.37459C16.1707 3.37459 16.5122 3.68998 16.5122 4.07295V17.9275C16.5122 18.3104 16.1707 18.6258 15.7561 18.6258H5.26829C4.85366 18.6258 4.5122 18.3104 4.5122 17.9275L4.5122 4.07295C4.5122 3.68998 4.85366 3.37459 5.26829 3.37459H15.7561Z" fill="#F0F0F0"/>
<path d="M6 6.42719V10.5955C6 11.3657 6.68108 12 7.50811 12H13.4919C14.3189 12 15 11.3657 15 10.5955V6.40453C15 5.6343 14.3189 5 13.4919 5H7.50811C6.68108 5.02265 6 5.65696 6 6.42719Z" fill="#F0F0F0"/>
</svg>
