<svg width="22" height="22" viewBox="0 0 22 22" fill="none" xmlns="http://www.w3.org/2000/svg">
<path fill-rule="evenodd" clip-rule="evenodd" d="M3 17.9275V4.05042C3 2.90151 4.02439 1.97788 5.26829 2.0004H15.7561C17 2.0004 18 2.92404 18 4.07295V17.9275C18 19.0764 17 20 15.7561 20H5.2439C4 20 3 19.0764 3 17.9275ZM16.5122 4.07295C16.5122 3.68998 16.1707 3.37459 15.7561 3.37459H5.26829C4.85366 3.37459 4.5122 3.68998 4.5122 4.07295V17.9275C4.5122 18.3104 4.85366 18.6258 5.26829 18.6258H15.7561C16.1707 18.6258 16.5122 18.3104 16.5122 17.9275V4.07295ZM6.8 5C6.35817 5 6 5.35817 6 5.8V16.2C6 16.6418 6.35817 17 6.8 17H14.2C14.6418 17 15 16.6418 15 16.2V5.8C15 5.35817 14.6418 5 14.2 5H6.8Z" fill="white"/>
</svg>
