<?xml version="1.0" standalone="no"?><!DOCTYPE svg PUBLIC "-//W3C//DTD SVG 1.1//EN" "http://www.w3.org/Graphics/SVG/1.1/DTD/svg11.dtd"><svg class="icon" width="32px" height="32.00px" viewBox="0 0 1024 1024" version="1.1" xmlns="http://www.w3.org/2000/svg"><path d="M512 512m-512 0a512 512 0 1 0 1024 0 512 512 0 1 0-1024 0Z" fill="#52C41A" /><path d="M292.579556 413.710222c0-38.826667 40.362667-38.826667 40.362666-38.826666h213.475556s40.433778 0 40.462222 40.007111v195.427555c0 38.826667-40.391111 38.826667-40.391111 38.826667H332.956444s-40.391111 0-40.391111-38.826667V413.710222z m329.898666 43.562667l79.601778-61.198222c2.389333-2.360889 5.959111-2.360889 9.486222-1.180445a8.860444 8.860444 0 0 1 5.959111 8.234667v220.131555c0 3.555556-1.180444 7.054222-4.750222 8.234667-2.375111 1.180444-3.527111 1.180444-4.736 1.180445a9.230222 9.230222 0 0 1-5.959111-2.360889l-79.573333-61.198223c-2.360889-1.180444-3.555556-4.707556-3.555556-7.068444v-97.706667c0-2.360889 1.194667-4.721778 3.527111-7.068444zM368 480a26.666667 26.666667 0 1 0 0-53.333333 26.666667 26.666667 0 0 0 0 53.333333z" fill="#FFFFFF" /></svg>