<?xml version="1.0" standalone="no"?><!DOCTYPE svg PUBLIC "-//W3C//DTD SVG 1.1//EN" "http://www.w3.org/Graphics/SVG/1.1/DTD/svg11.dtd"><svg class="icon" width="32px" height="32.00px" viewBox="0 0 1024 1024" version="1.1" xmlns="http://www.w3.org/2000/svg"><path d="M51.2 286.3616C51.2 204.8 135.9872 204.8 135.9872 204.8h448.3072s84.8896 0 84.9408 84.0192v410.4192c0 81.5616-84.8384 81.5616-84.8384 81.5616H136.0384S51.2 780.8 51.2 699.2384V286.3616z m692.7872 91.4432l167.168-128.512c5.0176-4.9152 12.4928-4.9152 19.968-2.4576a18.5856 18.5856 0 0 1 12.4416 17.3056v462.2848c0 7.424-2.4576 14.7968-9.9328 17.2544-5.0176 2.5088-7.424 2.5088-9.984 2.5088a19.3536 19.3536 0 0 1-12.4928-4.9664l-167.1168-128.512c-4.9152-2.4576-7.4752-9.8816-7.4752-14.848V392.704c0-4.9664 2.56-9.9328 7.424-14.848z m-534.3744 47.7696a56.0128 56.0128 0 1 0 0-112.0256 56.0128 56.0128 0 0 0 0 112.0256z" fill="#ffffff" /></svg>