<?xml version="1.0" standalone="no"?><!DOCTYPE svg PUBLIC "-//W3C//DTD SVG 1.1//EN" "http://www.w3.org/Graphics/SVG/1.1/DTD/svg11.dtd"><svg class="icon" width="32px" height="32.00px" viewBox="0 0 1024 1024" version="1.1" xmlns="http://www.w3.org/2000/svg"><path d="M702.1056 207.4624a192 192 0 0 0-382.1056 27.2384V512c0 31.6416 7.68 61.4912 21.1968 87.808l360.9088-392.3456z m-412.672 448.6656a276.0704 276.0704 0 0 1-54.784-165.4784 42.6496 42.6496 0 0 0-85.3504 0c0 86.9376 30.5664 166.656 81.5616 229.12l58.5216-63.6416z m41.7792 148.992l59.6992-64.8704a277.3504 277.3504 0 0 0 398.3872-249.6 42.6496 42.6496 0 0 1 85.3504 0c0 185.856-139.776 339.0976-320 360.192v87.808a42.6496 42.6496 0 0 1-85.3504 0v-87.808a360.2944 360.2944 0 0 1-138.0864-45.7216z m106.6496-115.9168L704 399.872V512a192 192 0 0 1-266.0864 177.152z" fill="#ffffff" /><path d="M865.3824 73.1136l53.8112 49.5616L126.976 983.9616l-53.8624-49.5104L865.3824 73.1136z" fill="#FF4D4F" /></svg>