<svg width="20" height="20" viewBox="0 0 20 20" fill="none" xmlns="http://www.w3.org/2000/svg">
<path fill-rule="evenodd" clip-rule="evenodd" d="M1.78564 3.74993C1.78564 2.66509 2.66509 1.78564 3.74993 1.78564H16.2499C17.3348 1.78564 18.2142 2.66509 18.2142 3.74993V16.2499C18.2142 17.3348 17.3348 18.2142 16.2499 18.2142H3.74993C2.66509 18.2142 1.78564 17.3348 1.78564 16.2499V3.74993ZM3.74993 3.21422C3.45406 3.21422 3.21422 3.45406 3.21422 3.74993V13.1547L5.40471 11.5118C5.67254 11.3109 6.04394 11.323 6.29813 11.5409L8.73845 13.6326L12.4388 10.3023C12.7114 10.0569 13.1257 10.058 13.3971 10.3047L16.7856 13.3852V3.74993C16.7856 3.45406 16.5458 3.21422 16.2499 3.21422H3.74993ZM16.7856 15.3159L12.9142 11.7964L9.22778 15.1142C8.96103 15.3542 8.55757 15.3591 8.2851 15.1256L5.80347 12.9985L3.21422 14.9404V16.2499C3.21422 16.5458 3.45406 16.7856 3.74993 16.7856H16.2499C16.5458 16.7856 16.7856 16.5458 16.7856 16.2499V15.3159ZM4.70234 7.49996C4.70234 5.95489 5.95489 4.70234 7.49996 4.70234C9.04503 4.70234 10.2976 5.95489 10.2976 7.49996C10.2976 9.04503 9.04503 10.2976 7.49996 10.2976C5.95489 10.2976 4.70234 9.04503 4.70234 7.49996ZM7.49996 6.13091C6.74387 6.13091 6.13091 6.74387 6.13091 7.49996C6.13091 8.25605 6.74387 8.86901 7.49996 8.86901C8.25605 8.86901 8.86901 8.25605 8.86901 7.49996C8.86901 6.74387 8.25605 6.13091 7.49996 6.13091Z" fill="#4385FF"/>
</svg>
