<?xml version="1.0" standalone="no"?><!DOCTYPE svg PUBLIC "-//W3C//DTD SVG 1.1//EN" "http://www.w3.org/Graphics/SVG/1.1/DTD/svg11.dtd"><svg class="icon" width="32px" height="32.00px" viewBox="0 0 1024 1024" version="1.1" xmlns="http://www.w3.org/2000/svg"><path d="M823.1424 106.496H195.584c-71.7312 0-130.0992 63.5904-130.0992 141.824v402.2784c0 78.1824 58.368 141.7728 130.048 141.7728h20.736v105.728c0 31.744 23.6032 57.6 52.6336 57.6a50.0736 50.0736 0 0 0 29.44-9.984l216.7296-153.344h308.0704c71.7312 0 130.048-63.5904 130.048-141.824V248.32c0-78.1824-58.368-141.7728-130.048-141.7728zM332.5952 407.296c21.3504 0 38.7072 18.8416 38.7072 42.1376 0 23.296-17.3568 42.1888-38.7072 42.1888s-38.7072-18.944-38.7072-42.1888c0-23.296 17.3568-42.1376 38.7072-42.1376z m176.7424 84.3264c-21.3504 0-38.656-18.944-38.656-42.1888 0-23.296 17.3056-42.1376 38.656-42.1376 21.4016 0 38.7072 18.8416 38.7072 42.1376 0 23.296-17.3056 42.1888-38.7072 42.1888z m176.7936 0c-21.4016 0-38.7072-18.944-38.7072-42.1888 0-23.296 17.3056-42.1376 38.7072-42.1376 21.3504 0 38.656 18.8416 38.656 42.1376 0 23.296-17.3056 42.1888-38.656 42.1888z" fill="#ffffff" /></svg>