<?xml version="1.0" standalone="no"?><!DOCTYPE svg PUBLIC "-//W3C//DTD SVG 1.1//EN" "http://www.w3.org/Graphics/SVG/1.1/DTD/svg11.dtd"><svg class="icon" width="32px" height="32.00px" viewBox="0 0 1024 1024" version="1.1" xmlns="http://www.w3.org/2000/svg"><path d="M128 51.2A76.8 76.8 0 0 0 51.2 128v464.7936a76.8 76.8 0 0 0 76.8 76.8h768a76.8 76.8 0 0 0 76.8-76.8V128A76.8 76.8 0 0 0 896 51.2h-768z m142.336 299.2128l193.3312-194.56a38.2464 38.2464 0 0 1 54.3232 0 38.8096 38.8096 0 0 1 0 54.6304l-193.3312 194.56a38.2464 38.2464 0 0 1-54.272 0 38.8096 38.8096 0 0 1 0-54.6304z m153.6 209.2544a38.8096 38.8096 0 0 1 0-54.6816l305.664-307.6096a38.2464 38.2464 0 0 1 54.272 0 38.8096 38.8096 0 0 1 0 54.6304l-305.6128 307.6608a38.2464 38.2464 0 0 1-54.272 0zM166.656 746.9056a38.656 38.656 0 1 0 0 77.312h171.9296l-52.0704 90.6752a38.7072 38.7072 0 0 0 14.1312 52.736 38.1952 38.1952 0 0 0 52.3776-14.08l74.24-129.3824h169.5232l74.1888 129.28a38.1952 38.1952 0 0 0 52.3776 14.08 38.7072 38.7072 0 0 0 14.1312-52.736l-52.0192-90.624h171.8784a38.656 38.656 0 0 0 0-77.312H166.656z" fill="#ffffff" /></svg>