<?xml version="1.0" standalone="no"?><!DOCTYPE svg PUBLIC "-//W3C//DTD SVG 1.1//EN" "http://www.w3.org/Graphics/SVG/1.1/DTD/svg11.dtd"><svg class="icon" width="32px" height="32.00px" viewBox="0 0 1024 1024" version="1.1" xmlns="http://www.w3.org/2000/svg"><path d="M193.6384 837.49546667h419.9936s94.208 0 94.208-90.624V290.88426667v-4.3008L193.5872 837.49546667z m381.952-640H115.3024s-94.208 0-94.208 90.624v458.752c0 14.7968 2.56 27.136 6.7072 37.5296L575.5392 197.49546667z m401.1008 49.5104l-185.7536 142.7456c-5.4272 5.5296-8.2432 11.008-8.2432 16.5376v227.9424c0 5.5296 2.816 13.824 8.2944 16.5376l185.7024 142.7968a21.504 21.504 0 0 0 13.8752 5.4784c2.816 0 5.4784 0 11.0592-2.7648 8.3456-2.7136 11.0592-10.9056 11.0592-19.2V263.44106667a20.6848 20.6848 0 0 0-13.824-19.2c-8.2944-2.7648-16.64-2.7648-22.1696 2.7648zM259.3792 380.58666667a62.208 62.208 0 1 1-124.416 0 62.208 62.208 0 0 1 124.416 0z" fill="#ffffff" /><path d="M745.984 75.69066667l53.8624 49.5104L54.272 935.79946667l-53.8624-49.5104L746.0352 75.69066667z" fill="#FF4D4F" /></svg>