<svg width="34" height="29" viewBox="0 0 34 29" fill="none" xmlns="http://www.w3.org/2000/svg">
<path fill-rule="evenodd" clip-rule="evenodd" d="M26.8513 1.66948L25.0431 0L0 27.3305L1.80815 29L26.8513 1.66948ZM20.595 25.686H6.48991L23.759 7.11094C23.7605 7.15856 23.7614 7.20693 23.7614 7.25607V22.6305C23.7614 25.686 20.595 25.686 20.595 25.686ZM3.86026 4.10782H19.3169L0.921157 23.8948C0.780223 23.5458 0.696027 23.1288 0.696027 22.6305V7.16329C0.696027 4.10782 3.86026 4.10782 3.86026 4.10782ZM26.5516 10.5899L32.7898 5.77581C32.9768 5.59024 33.2562 5.59024 33.5335 5.68303C33.668 5.72991 33.7849 5.81716 33.8683 5.93295C33.9518 6.04874 33.9977 6.18748 34 6.33037V23.649C34 23.9274 33.9076 24.2036 33.6281 24.2963C33.4411 24.3891 33.3508 24.3891 33.2562 24.3891C33.0843 24.3848 32.9187 24.3201 32.7898 24.2036L26.5537 19.3895C26.3689 19.2967 26.2743 19.0183 26.2743 18.8328V11.1466C26.2743 10.961 26.3689 10.7755 26.5516 10.5899ZM6.60735 12.378C7.76157 12.378 8.69725 11.4388 8.69725 10.2802C8.69725 9.12154 7.76157 8.18229 6.60735 8.18229C5.45313 8.18229 4.51745 9.12154 4.51745 10.2802C4.51745 11.4388 5.45313 12.378 6.60735 12.378Z" fill="#828282" fill-opacity="0.36"/>
</svg>
