<?xml version="1.0" standalone="no"?><!DOCTYPE svg PUBLIC "-//W3C//DTD SVG 1.1//EN" "http://www.w3.org/Graphics/SVG/1.1/DTD/svg11.dtd"><svg class="icon" width="32px" height="32.00px" viewBox="0 0 1024 1024" version="1.1" xmlns="http://www.w3.org/2000/svg"><path d="M779.199513 89.024584h155.775903v381.247762a44.543972 44.543972 0 1 0 88.959944 0V44.544612A44.543972 44.543972 0 0 0 979.519388 0.00064H44.543972A44.543972 44.543972 0 0 0 0 44.544612v934.911416c0 24.575985 19.903988 44.543972 44.543972 44.543972h425.727734a44.543972 44.543972 0 1 0 0-89.087944H88.959944V89.088584h690.111569z m-435.839728 191.99988L587.519633 525.184312a44.543972 44.543972 0 0 1-62.911961 62.91196L280.959824 344.640425v125.631921a44.543972 44.543972 0 0 1-89.023944 0V236.544492C191.99988 211.840508 211.903868 192.00052 236.543852 192.00052h233.727854a44.543972 44.543972 0 1 1 0 89.023944H343.359785zM703.99956 640.00024a63.99996 63.99996 0 0 0-63.99996 63.99996v255.99984a63.99996 63.99996 0 0 0 63.99996 63.99996h255.99984a63.99996 63.99996 0 0 0 63.99996-63.99996v-255.99984a63.99996 63.99996 0 0 0-63.99996-63.99996h-255.99984z" fill="#ffffff" /></svg>